<svg xmlns="http://www.w3.org/2000/svg" version="1.1" xmlns:xlink="http://www.w3.org/1999/xlink" xmlns:svgjs="http://svgjs.dev/svgjs" viewBox="0 0 800 800"><defs><linearGradient x1="50%" y1="0%" x2="50%" y2="100%" id="ccchaos-grad"><stop stop-color="hsl(206, 75%, 49%)" stop-opacity="1" offset="0%"></stop><stop stop-color="hsl(331, 90%, 56%)" stop-opacity="1" offset="100%"></stop></linearGradient></defs><g stroke-width="2" stroke="url(#ccchaos-grad)" fill="none" stroke-linecap="round"><path d="M388.22 107.2C397.82 105.2 407.52 103.95 417.33 103.47 427.17 103.3 437.14 103.94 447.23 105.38 457.37 107.17 467.67 109.75 478.12 113.08 488.65 116.73 499.35 121.08 510.18 126.07 521.09 131.3 532.13 137.1 543.23 143.4 554.34 149.83 565.43 156.68 576.4 163.88 587.22 171.12 597.76 178.64 607.86 186.39 617.56 194.1 626.61 201.99 634.81 210.03 642.33 217.97 648.79 226.04 654.03 234.23 658.39 242.28 661.43 250.45 663.08 258.72 663.89 266.86 663.43 275.13 661.8 283.53 659.73 291.81 656.88 300.25 653.48 308.84 650.38 317.34 647.32 326.03 644.61 334.91 643.03 343.73 642.33 352.77 642.72 362.02 644.79 371.24 648.14 380.69 652.74 390.38 658.87 400.06 665.93 409.99 673.58 420.16 681.85 430.33 689.72 440.51 696.78 450.67 703.24 460.83 708.15 470.96 711.29 481.02 713.02 491.07 712.68 501.03 710.3 510.85 706.39 520.62 700.63 530.22 693.25 539.58 684.79 548.84 675.18 557.8 664.74 566.39 653.94 574.82 642.8 582.82 631.58 590.3 620.63 597.54 609.93 604.2 599.64 610.21 589.97 615.92 580.81 620.93 572.18 625.2 564.24 629.15 556.75 632.36 549.65 634.81 543.12 637 536.81 638.51 530.62 639.35 524.8 640.11 518.93 640.36 512.92 640.17 507.1 640.15 501 639.9 494.59 639.53 488.22 639.64 481.45 639.84 474.27 640.24 467.07 641.39 459.42 642.91 451.32 644.85 443.19 647.66 434.62 650.94 425.62 654.66 416.61 659.17 407.18 663.98 397.37 668.98 387.56 674.45 377.62 679.67 367.61 684.49 357.63 689.29 347.6 693.37 337.57 696.6 327.6 699.39 317.66 701.11 307.81 701.7 298.05 701.62 288.41 700.32 278.97 697.84 269.65 694.63 260.56 690.28 251.77 684.89 243.15 678.88 234.87 671.97 226.99 664.27 219.33 656.16 212.1 647.43 205.35 638.21 198.83 628.78 192.8 619.02 187.29 609.03 181.96 599.01 177.13 588.86 172.79 578.66 168.54 568.54 164.71 558.43 161.3 548.36 157.83 538.42 154.68 528.53 151.82 518.72 148.77 509.03 145.91 499.4 143.23 489.82 140.25 480.35 137.39 470.89 134.67 461.45 131.62 452.08 128.71 442.7 125.97 433.29 122.98 423.93 120.24 414.51 117.81 405.06 115.3 395.63 113.22 386.14 111.66 376.61 110.22 367.08 109.46 357.74 109.41 348.61 109.64 339.48 110.63 330.56 112.38 321.89 114.47 313.22 117.31 304.82 120.85 296.69 124.68 288.59 129.15 280.79 134.18 273.32 139.37 265.88 145.03 258.78 151.08 252.04 157.13 245.33 163.46 238.98 170.01 233.01 176.41 227.05 182.96 221.44 189.62 216.21 196.04 210.94 202.54 206 209.11 201.4 215.41 196.69 221.8 192.27 228.29 188.11 234.54 183.78 240.92 179.66 247.46 175.73 253.82 171.55 260.39 167.52 267.18 163.62 273.85 159.43 280.79 155.33 288 151.34 295.15 147.05 302.6 142.86 310.36 138.81 318.07 134.51 326.11 130.39 334.46 126.51 342.79 122.48 351.43 118.77 360.4 115.46 369.35 112.17 378.62 109.38 388.21 107.2" stroke-dasharray="0 2" transform="rotate(0, 400, 400)" opacity="0.81"></path><path d="M393.33 118C402.67 116.02 412.15 114.76 421.74 114.23 431.36 113.99 441.12 114.52 451.01 115.82 460.94 117.45 471.03 119.83 481.24 122.93 491.5 126.35 501.9 130.44 512.38 135.16 522.9 140.11 533.47 145.63 544.02 151.63 554.52 157.79 564.91 164.37 575.09 171.31 585.05 178.31 594.65 185.6 603.72 193.14 612.37 200.66 620.3 208.38 627.37 216.26 633.79 224.06 639.16 232.01 643.39 240.08 646.83 248.04 649.07 256.12 650.07 264.3 650.39 272.37 649.62 280.55 647.86 288.85 645.84 297.06 643.19 305.39 640.16 313.87 637.52 322.26 635 330.82 632.87 339.54 631.84 348.21 631.63 357.06 632.44 366.09 634.76 375.1 638.24 384.31 642.82 393.72 648.77 403.12 655.51 412.74 662.77 422.55 670.59 432.36 678.04 442.15 684.75 451.88 690.94 461.61 695.75 471.28 698.95 480.84 700.92 490.39 701 499.81 699.21 509.05 696.02 518.25 691.08 527.24 684.58 535.95 677.04 544.57 668.32 552.87 658.71 560.78 648.64 568.53 638.11 575.84 627.37 582.63 616.74 589.21 606.21 595.22 595.94 600.61 586.14 605.74 576.73 610.22 567.76 614 559.38 617.53 551.41 620.38 543.81 622.55 536.73 624.54 529.91 625.91 523.27 626.71 516.99 627.49 510.75 627.83 504.46 627.8 498.38 627.98 492.13 627.99 485.65 627.9 479.27 628.29 472.57 628.78 465.53 629.46 458.51 630.84 451.11 632.55 443.33 634.62 435.54 637.5 427.35 640.78 418.78 644.43 410.19 648.8 401.23 653.42 391.92 658.17 382.61 663.37 373.19 668.31 363.72 672.87 354.26 677.44 344.78 681.34 335.32 684.45 325.9 687.2 316.54 688.97 307.29 689.7 298.12 689.84 289.1 688.86 280.28 686.79 271.59 684.05 263.14 680.25 254.99 675.46 247.01 670.1 239.38 663.85 232.14 656.83 225.09 649.39 218.46 641.32 212.3 632.74 206.32 623.93 200.81 614.75 195.78 605.28 190.9 595.75 186.46 586.03 182.47 576.22 178.53 566.45 174.97 556.63 171.77 546.82 168.48 537.11 165.47 527.42 162.71 517.78 159.74 508.25 156.93 498.76 154.28 489.32 151.32 479.98 148.47 470.66 145.73 461.37 142.68 452.15 139.75 442.94 136.99 433.74 133.99 424.57 131.22 415.39 128.76 406.2 126.21 397.03 124.09 387.84 122.47 378.65 120.96 369.47 120.12 360.49 119.97 351.74 120.09 342.99 120.96 334.48 122.56 326.22 124.5 317.97 127.17 309.98 130.54 302.28 134.2 294.59 138.49 287.2 143.35 280.14 148.39 273.09 153.89 266.37 159.8 259.99 165.74 253.62 171.98 247.59 178.45 241.91 184.81 236.22 191.34 230.86 197.99 225.83 204.44 220.75 210.97 215.97 217.57 211.48 223.93 206.88 230.37 202.53 236.89 198.42 243.18 194.12 249.58 190.01 256.11 186.08 262.45 181.9 268.97 177.85 275.68 173.93 282.25 169.72 289.06 165.61 296.12 161.61 303.08 157.33 310.33 153.16 317.85 149.13 325.33 144.87 333.11 140.8 341.19 136.97 349.24 133.01 357.61 129.37 366.3 126.12 374.97 122.89 383.98 120.16 393.32 118" stroke-dasharray="6 10" transform="rotate(4.04, 400, 400)" opacity="0.91"></path><path d="M398.86 128.8C407.94 126.84 417.17 125.57 426.51 125 435.88 124.69 445.38 125.13 455 126.28 464.65 127.75 474.43 129.94 484.3 132.82 494.2 136 504.19 139.83 514.2 144.26 524.2 148.94 534.19 154.16 544.08 159.87 553.87 165.73 563.47 172.02 572.77 178.68 581.82 185.41 590.43 192.45 598.46 199.74 606.05 207.04 612.91 214.55 618.9 222.24 624.29 229.87 628.69 237.66 632.02 245.57 634.68 253.41 636.25 261.36 636.73 269.41 636.7 277.38 635.74 285.45 633.96 293.63 632.07 301.73 629.7 309.95 627.07 318.28 624.91 326.55 622.92 334.96 621.34 343.5 620.82 352 621.08 360.65 622.24 369.46 624.8 378.25 628.36 387.2 632.9 396.32 638.65 405.43 645.09 414.71 651.96 424.15 659.35 433.6 666.38 442.98 672.73 452.27 678.65 461.56 683.33 470.75 686.58 479.81 688.73 488.84 689.18 497.72 687.92 506.39 685.39 515.01 681.22 523.39 675.57 531.48 668.92 539.47 661.09 547.12 652.33 554.38 643.05 561.49 633.21 568.15 623.04 574.31 612.85 580.28 602.62 585.7 592.52 590.54 582.75 595.15 573.25 599.16 564.09 602.54 555.41 605.71 547.08 608.27 539.09 610.23 531.57 612.06 524.3 613.36 517.24 614.16 510.54 614.99 503.93 615.45 497.34 615.61 490.97 616 484.52 616.25 477.93 616.45 471.45 617.1 464.75 617.86 457.79 618.8 450.87 620.38 443.65 622.25 436.12 624.45 428.59 627.37 420.72 630.63 412.53 634.21 404.33 638.42 395.8 642.85 386.98 647.37 378.15 652.29 369.24 656.97 360.3 661.27 351.38 665.6 342.45 669.32 333.56 672.31 324.72 675 315.96 676.8 307.32 677.65 298.76 677.98 290.37 677.29 282.19 675.58 274.13 673.28 266.33 669.99 258.83 665.76 251.48 661 244.48 655.39 237.86 649.03 231.4 642.26 225.35 634.86 219.74 626.94 214.28 618.76 209.25 610.17 204.66 601.28 200.18 592.27 196.09 583.05 192.41 573.69 188.74 564.32 185.4 554.87 182.37 545.39 179.24 535.97 176.33 526.54 173.64 517.15 170.73 507.83 167.95 498.54 165.3 489.31 162.36 480.14 159.5 471 156.75 461.92 153.69 452.88 150.74 443.87 147.96 434.89 144.95 425.94 142.16 417 139.67 408.09 137.11 399.19 134.94 390.3 133.27 381.44 131.71 372.58 130.8 363.95 130.55 355.57 130.56 347.19 131.3 339.05 132.76 331.18 134.54 323.31 137.04 315.71 140.22 308.4 143.69 301.09 147.79 294.07 152.45 287.37 157.3 280.67 162.64 274.29 168.38 268.23 174.17 262.16 180.29 256.41 186.66 250.98 192.95 245.52 199.43 240.36 206.05 235.51 212.49 230.58 219.04 225.92 225.66 221.53 232.07 217.01 238.55 212.72 245.11 208.63 251.45 204.36 257.89 200.26 264.43 196.31 270.79 192.13 277.3 188.06 283.96 184.12 290.49 179.91 297.22 175.79 304.16 171.79 311.01 167.52 318.1 163.38 325.45 159.38 332.74 155.18 340.32 151.16 348.18 147.39 356 143.51 364.13 139.95 372.58 136.77 381 133.61 389.76 130.93 398.85 128.8" stroke-dasharray="7 8" transform="rotate(8.08, 400, 400)" opacity="0.95"></path><path d="M404.45 139.61C413.28 137.67 422.23 136.4 431.28 135.78 440.36 135.42 449.55 135.75 458.83 136.77 468.13 138.09 477.52 140.09 486.96 142.75 496.4 145.69 505.87 149.26 515.31 153.41 524.71 157.79 534.02 162.71 543.17 168.1 552.17 173.67 560.92 179.65 569.29 186 577.4 192.44 585.01 199.2 592.02 206.22 598.6 213.26 604.45 220.54 609.45 227.99 613.91 235.43 617.45 243.02 620.01 250.74 622.01 258.41 623.06 266.2 623.16 274.09 622.89 281.92 621.85 289.85 620.16 297.87 618.46 305.84 616.42 313.9 614.23 322.07 612.54 330.19 611.08 338.43 610.03 346.77 609.98 355.08 610.65 363.52 612.14 372.08 614.88 380.63 618.51 389.31 622.98 398.12 628.53 406.92 634.67 415.86 641.16 424.92 648.11 433.98 654.73 442.94 660.74 451.79 666.38 460.63 670.92 469.34 674.16 477.88 676.46 486.4 677.23 494.74 676.43 502.84 674.51 510.89 671.06 518.68 666.21 526.16 660.41 533.55 653.46 540.59 645.56 547.23 637.1 553.73 628.01 559.8 618.49 565.38 608.84 570.8 599.05 575.69 589.25 580.04 579.65 584.21 570.21 587.82 561.01 590.86 552.18 593.74 543.64 596.08 535.38 597.88 527.52 599.61 519.9 600.88 512.5 601.73 505.43 602.64 498.48 603.24 491.61 603.6 484.96 604.2 478.29 604.7 471.55 605.16 464.95 606.07 458.2 607.08 451.27 608.24 444.4 610.01 437.3 612.02 429.96 614.31 422.64 617.26 415.05 620.5 407.2 623.98 399.34 628.05 391.22 632.28 382.84 636.57 374.47 641.22 366.05 645.63 357.63 649.69 349.24 653.78 340.86 657.31 332.55 660.18 324.29 662.8 316.12 664.6 308.1 665.54 300.16 666.04 292.39 665.59 284.85 664.21 277.42 662.32 270.24 659.49 263.38 655.79 256.65 651.6 250.24 646.6 244.22 640.88 238.32 634.76 232.81 628.02 227.71 620.74 222.71 613.21 218.12 605.25 213.92 596.95 209.79 588.51 206.01 579.82 202.59 570.95 199.14 562.05 195.98 553.02 193.1 543.94 190.07 534.87 187.24 525.78 184.6 516.69 181.72 507.65 178.95 498.62 176.3 489.63 173.35 480.7 170.48 471.8 167.7 462.94 164.63 454.13 161.68 445.35 158.88 436.62 155.86 427.91 153.07 419.24 150.56 410.6 147.98 401.99 145.79 393.4 144.08 384.86 142.48 376.33 141.49 368.04 141.15 360.01 141.07 351.97 141.68 344.19 142.98 336.68 144.6 329.17 146.92 321.92 149.9 314.97 153.17 308 157.05 301.33 161.5 294.95 166.15 288.57 171.28 282.48 176.82 276.69 182.45 270.88 188.41 265.37 194.64 260.16 200.84 254.89 207.23 249.9 213.78 245.19 220.2 240.39 226.73 235.83 233.35 231.51 239.79 227.06 246.3 222.8 252.88 218.73 259.27 214.48 265.75 210.37 272.32 206.41 278.71 202.22 285.22 198.15 291.87 194.18 298.39 189.97 305.07 185.86 311.94 181.86 318.71 177.63 325.69 173.52 332.91 169.57 340.06 165.43 347.47 161.48 355.14 157.78 362.77 153.99 370.7 150.51 378.91 147.4 387.11 144.32 395.61 141.7 404.44 139.61" stroke-dasharray="2 7" transform="rotate(12.12, 400, 400)" opacity="0.34"></path><path d="M409.77 150.41C418.32 148.51 426.96 147.23 435.69 146.58 444.43 146.16 453.25 146.4 462.13 147.29 471.02 148.46 479.94 150.27 488.87 152.71 497.79 155.42 506.67 158.72 515.46 162.59 524.18 166.68 532.75 171.29 541.09 176.36 549.27 181.61 557.13 187.27 564.58 193.3 571.75 199.43 578.4 205.88 584.43 212.6 590.06 219.37 594.98 226.37 599.09 233.56 602.74 240.75 605.55 248.11 607.47 255.61 608.95 263.07 609.61 270.66 609.46 278.35 609.07 286 608.05 293.75 606.51 301.59 605.07 309.38 603.4 317.27 601.65 325.24 600.44 333.18 599.48 341.21 598.93 349.34 599.32 357.43 600.36 365.64 602.12 373.93 605.02 382.22 608.68 390.61 613.06 399.09 618.4 407.58 624.23 416.16 630.35 424.82 636.89 433.49 643.11 442.03 648.77 450.42 654.13 458.81 658.5 467.03 661.72 475.07 664.13 483.08 665.16 490.88 664.78 498.42 663.39 505.92 660.6 513.14 656.51 520.04 651.52 526.86 645.42 533.32 638.37 539.39 630.75 545.34 622.44 550.87 613.64 555.93 604.63 560.85 595.36 565.29 585.99 569.21 576.7 573 567.47 576.28 558.38 579.04 549.55 581.7 540.93 583.87 532.54 585.58 524.47 587.26 516.62 588.54 508.97 589.45 501.61 590.47 494.39 591.23 487.28 591.79 480.38 592.61 473.51 593.35 466.63 594.06 459.89 595.2 453.07 596.43 446.15 597.8 439.29 599.72 432.28 601.86 425.1 604.22 417.94 607.18 410.58 610.37 403.03 613.76 395.48 617.67 387.72 621.7 379.77 625.76 371.82 630.15 363.88 634.31 355.97 638.13 348.07 641.99 340.23 645.32 332.49 648.07 324.79 650.6 317.21 652.39 309.79 653.4 302.44 654.02 295.28 653.79 288.36 652.71 281.53 651.17 274.96 648.77 268.7 645.56 262.54 641.9 256.7 637.48 251.22 632.36 245.84 626.88 240.82 620.78 236.17 614.15 231.6 607.26 227.38 599.93 223.53 592.24 219.69 584.4 216.17 576.28 212.97 567.95 209.69 559.55 206.67 551 203.89 542.35 200.94 533.71 198.17 525 195.54 516.27 192.67 507.56 189.91 498.86 187.23 490.17 184.27 481.53 181.39 472.9 178.59 464.32 175.51 455.78 172.55 447.27 169.74 438.81 166.72 430.37 163.93 421.97 161.41 413.64 158.83 405.31 156.63 397.03 154.88 388.82 153.25 380.6 152.21 372.64 151.78 364.94 151.59 357.24 152.08 349.8 153.23 342.62 154.69 335.44 156.82 328.52 159.58 321.88 162.64 315.23 166.3 308.86 170.5 302.77 174.93 296.66 179.83 290.83 185.15 285.29 190.58 279.71 196.36 274.4 202.41 269.36 208.47 264.26 214.74 259.42 221.19 254.81 227.54 250.12 234.03 245.64 240.61 241.37 247.04 236.96 253.56 232.73 260.15 228.67 266.57 224.43 273.07 220.33 279.66 216.35 286.08 212.17 292.61 208.09 299.26 204.12 305.77 199.92 312.43 195.82 319.24 191.84 325.96 187.65 332.87 183.59 339.98 179.69 347.02 175.62 354.29 171.76 361.79 168.14 369.26 164.44 376.98 161.05 384.98 158.02 392.95 155.02 401.21 152.46 409.76 150.41" stroke-dasharray="1 2" transform="rotate(16.16, 400, 400)" opacity="0.40"></path><path d="M414.48 161.21C422.73 159.35 431.04 158.07 439.4 157.39 447.76 156.92 456.17 157.07 464.59 157.84 473 158.86 481.41 160.49 489.76 162.72 498.09 165.19 506.32 168.24 514.41 171.82 522.41 175.62 530.21 179.91 537.72 184.66 545.06 189.58 552.04 194.9 558.58 200.59 564.85 206.4 570.59 212.52 575.71 218.92 580.49 225.37 584.58 232.07 587.93 238.97 590.89 245.88 593.09 252.97 594.51 260.21 595.61 267.43 596 274.78 595.72 282.24 595.3 289.67 594.38 297.2 593.07 304.82 591.93 312.4 590.65 320.07 589.36 327.82 588.61 335.54 588.13 343.34 588.04 351.22 588.82 359.08 590.18 367.02 592.19 375.03 595.2 383.03 598.87 391.11 603.14 399.25 608.26 407.39 613.79 415.6 619.55 423.86 625.68 432.12 631.51 440.23 636.82 448.17 641.9 456.1 646.09 463.84 649.26 471.38 651.74 478.89 652.98 486.17 652.96 493.18 652.05 500.15 649.86 506.83 646.46 513.18 642.24 519.47 636.95 525.4 630.74 530.94 623.95 536.39 616.45 541.43 608.41 546.03 600.09 550.52 591.44 554.56 582.6 558.13 573.74 561.6 564.84 564.61 556 567.16 547.32 569.65 538.77 571.71 530.38 573.36 522.24 575.02 514.28 576.35 506.49 577.37 498.95 578.51 491.55 579.44 484.27 580.2 477.18 581.22 470.16 582.19 463.17 583.14 456.31 584.48 449.43 585.92 442.51 587.47 435.65 589.52 428.71 591.75 421.66 594.17 414.64 597.11 407.49 600.25 400.21 603.54 392.94 607.29 385.51 611.12 377.96 614.96 370.41 619.09 362.9 622.99 355.48 626.57 348.06 630.2 340.73 633.36 333.54 635.96 326.37 638.39 319.34 640.16 312.5 641.21 305.71 641.94 299.13 641.9 292.8 641.07 286.52 639.85 280.52 637.84 274.81 635.07 269.18 631.91 263.86 628.03 258.87 623.49 253.95 618.6 249.36 613.13 245.11 607.13 240.9 600.88 237 594.18 233.43 587.11 229.84 579.88 226.54 572.35 223.5 564.58 220.36 556.72 217.44 548.69 214.72 540.53 211.83 532.35 209.07 524.07 206.45 515.75 203.58 507.44 200.8 499.1 198.1 490.77 195.13 482.46 192.22 474.16 189.4 465.9 186.32 457.66 183.36 449.45 180.54 441.3 177.54 433.16 174.75 425.06 172.23 417.03 169.67 409.01 167.46 401.05 165.69 393.15 164.03 385.26 162.93 377.62 162.43 370.25 162.15 362.86 162.51 355.74 163.51 348.87 164.81 342 166.74 335.38 169.29 329.04 172.12 322.67 175.54 316.57 179.49 310.74 183.67 304.88 188.32 299.27 193.39 293.94 198.59 288.55 204.15 283.42 209.99 278.53 215.87 273.57 221.99 268.84 228.29 264.33 234.54 259.72 240.93 255.3 247.43 251.07 253.83 246.71 260.32 242.5 266.88 238.44 273.3 234.22 279.81 230.11 286.39 226.13 292.83 221.95 299.36 217.88 305.99 213.91 312.51 209.74 319.14 205.67 325.91 201.72 332.59 197.58 339.43 193.58 346.43 189.74 353.38 185.76 360.52 181.99 367.86 178.45 375.17 174.86 382.7 171.56 390.47 168.62 398.22 165.71 406.22 163.22 414.47 161.22" stroke-dasharray="10 3" transform="rotate(20.200000000000003, 400, 400)" opacity="0.76"></path><path d="M418.29 172.02C426.21 170.19 434.16 168.92 442.11 168.21 450.07 167.7 458.01 167.77 465.93 168.42 473.83 169.3 481.67 170.76 489.41 172.77 497.11 175.02 504.67 177.81 512.03 181.1 519.29 184.61 526.3 188.59 532.99 193 539.52 197.59 545.65 202.57 551.33 207.91 556.76 213.37 561.67 219.14 565.99 225.2 570 231.32 573.38 237.69 576.09 244.26 578.49 250.87 580.22 257.66 581.28 264.59 582.11 271.53 582.34 278.61 582.03 285.79 581.68 292.96 580.93 300.24 579.9 307.59 579.09 314.93 578.21 322.35 577.37 329.84 577.07 337.31 577.03 344.85 577.36 352.45 578.49 360.03 580.13 367.69 582.33 375.38 585.42 383.08 589.06 390.83 593.22 398.62 598.11 406.4 603.34 414.23 608.74 422.08 614.48 429.92 619.92 437.6 624.9 445.08 629.69 452.56 633.69 459.83 636.79 466.87 639.3 473.9 640.71 480.68 640.99 487.19 640.5 493.65 638.84 499.83 636.07 505.68 632.56 511.47 628.05 516.91 622.64 521.99 616.68 526.98 609.99 531.59 602.74 535.79 595.16 539.91 587.19 543.61 578.95 546.89 570.63 550.1 562.19 552.9 553.71 555.3 545.31 557.66 536.97 559.65 528.72 561.29 520.65 562.97 512.71 564.37 504.91 565.5 497.3 566.77 489.82 567.87 482.46 568.84 475.26 570.05 468.14 571.23 461.1 572.39 454.17 573.93 447.25 575.54 440.35 577.24 433.51 579.4 426.64 581.7 419.72 584.15 412.83 587.07 405.87 590.13 398.84 593.31 391.82 596.9 384.71 600.54 377.52 604.16 370.33 608.04 363.24 611.69 356.26 615.04 349.29 618.44 342.45 621.41 335.76 623.87 329.09 626.2 322.58 627.92 316.28 629 306.99 629.87 289.66 627.54 281.7 624.35 276.54 621.64 271.67 618.26 267.11 614.26 262.59 609.95 258.37 605.06 254.46 599.68 250.55 594.05 246.92 587.98 243.58 581.53 240.19 574.91 237.04 567.97 234.12 560.79 231.08 553.5 228.23 546.01 225.55 538.38 222.68 530.69 219.93 522.9 217.29 515.03 214.41 507.16 211.61 499.23 208.88 491.3 205.89 483.37 202.97 475.43 200.13 467.52 197.05 459.63 194.09 451.76 191.27 443.93 188.3 436.12 185.53 428.35 183.02 420.64 180.48 412.94 178.28 405.3 176.5 397.73 174.82 390.16 173.68 382.84 173.1 375.77 172.74 368.7 172.98 361.88 173.83 355.3 174.96 348.72 176.7 342.38 179.02 336.3 181.62 330.2 184.79 324.34 188.47 318.73 192.38 313.09 196.76 307.69 201.56 302.53 206.5 297.32 211.8 292.34 217.41 287.57 223.07 282.74 228.98 278.1 235.1 273.67 241.19 269.13 247.45 264.77 253.83 260.57 260.14 256.24 266.55 252.05 273.04 248.01 279.43 243.8 285.9 239.7 292.44 235.72 298.87 231.56 305.39 227.5 311.98 223.55 318.48 219.42 325.08 215.39 331.78 211.49 338.41 207.42 345.17 203.49 352.07 199.73 358.92 195.85 365.93 192.17 373.11 188.73 380.25 185.25 387.59 182.05 395.12 179.2 402.63 176.39 410.35 173.98 418.28 172.02" stroke-dasharray="8 9" transform="rotate(24.24, 400, 400)" opacity="0.54"></path><path d="M420.96 182.82C428.54 181.04 436.09 179.78 443.6 179.05 451.11 178.5 458.57 178.49 465.95 179.03 473.3 179.78 480.56 181.07 487.66 182.88 494.72 184.9 501.58 187.44 508.22 190.45 514.75 193.67 521 197.33 526.9 201.42 532.65 205.66 538 210.29 542.89 215.27 547.57 220.37 551.74 225.79 555.36 231.48 558.73 237.25 561.53 243.26 563.72 249.48 565.68 255.75 567.07 262.2 567.88 268.81 568.55 275.44 568.74 282.2 568.49 289.07 568.26 295.95 567.75 302.93 567.03 309.99 566.57 317.04 566.09 324.18 565.68 331.37 565.8 338.55 566.17 345.8 566.88 353.09 568.31 360.37 570.19 367.71 572.54 375.07 575.67 382.44 579.28 389.84 583.3 397.25 587.96 404.67 592.88 412.1 597.93 419.53 603.28 426.95 608.36 434.19 613 441.22 617.5 448.25 621.31 455.06 624.3 461.64 626.82 468.19 628.35 474.5 628.88 480.52 628.75 486.52 627.56 492.22 625.37 497.61 622.51 502.95 618.72 507.96 614.08 512.62 608.91 517.21 603.03 521.45 596.56 525.31 589.75 529.11 582.51 532.53 574.94 535.58 567.23 538.58 559.33 541.22 551.33 543.5 543.33 545.79 535.32 547.75 527.34 549.41 519.47 551.13 511.68 552.61 503.98 553.87 496.43 555.28 488.98 556.55 481.64 557.7 474.44 559.11 467.31 560.47 460.27 561.83 453.33 563.53 446.44 565.28 439.59 567.12 432.8 569.36 426.02 571.71 419.24 574.17 412.49 577.04 405.71 580.03 398.92 583.09 392.14 586.51 385.32 589.95 378.48 593.35 371.63 596.99 364.92 600.4 358.36 603.53 351.81 606.7 345.4 609.48 339.18 611.8 332.96 614.01 326.94 615.68 321.12 616.77 312.54 617.75 296.61 616.07 289.31 613.4 282.32 609.64 269.75 598.74 264.15 591.78 260.49 586.75 257.07 581.28 253.9 575.44 250.66 569.44 247.63 563.11 244.79 556.51 241.82 549.81 239 542.88 236.33 535.79 233.46 528.64 230.7 521.35 228.04 513.97 225.14 506.57 222.31 499.1 219.55 491.59 216.55 484.09 213.61 476.56 210.76 469.04 207.7 461.52 204.75 454.02 201.95 446.55 199.01 439.09 196.27 431.67 193.79 424.3 191.27 416.93 189.09 409.62 187.3 402.38 185.62 395.14 184.44 388.14 183.8 381.38 183.36 374.61 183.49 368.08 184.19 361.78 185.15 355.47 186.7 349.4 188.8 343.56 191.17 337.7 194.07 332.07 197.47 326.66 201.1 321.22 205.19 316 209.69 311 214.35 305.94 219.37 301.09 224.69 296.43 230.1 291.7 235.77 287.16 241.65 282.79 247.55 278.32 253.62 274 259.83 269.83 266 265.54 272.28 261.38 278.66 257.34 284.96 253.16 291.35 249.09 297.81 245.12 304.19 240.99 310.64 236.96 317.17 233.05 323.61 228.97 330.14 224.99 336.76 221.15 343.32 217.16 349.98 213.32 356.76 209.65 363.49 205.88 370.35 202.31 377.34 198.98 384.31 195.61 391.43 192.53 398.7 189.77 405.95 187.06 413.37 184.72 420.95 182.82" stroke-dasharray="9 11" transform="rotate(28.28, 400, 400)" opacity="0.15"></path><path d="M422.33 193.62C429.53 191.89 436.66 190.65 443.71 189.9 450.76 189.32 457.71 189.25 464.53 189.67 471.33 190.29 477.99 191.42 484.45 193.04 490.87 194.85 497.06 197.14 502.99 199.88 508.83 202.8 514.36 206.15 519.53 209.91 524.57 213.81 529.2 218.09 533.4 222.7 537.42 227.44 540.96 232.48 544 237.79 546.84 243.18 549.18 248.82 550.98 254.67 552.63 260.58 553.78 266.67 554.47 272.92 555.08 279.19 555.3 285.61 555.18 292.14 555.14 298.69 554.89 305.34 554.5 312.07 554.4 318.8 554.31 325.61 554.32 332.47 554.82 339.34 555.56 346.26 556.6 353.21 558.28 360.17 560.35 367.16 562.82 374.17 565.97 381.18 569.5 388.21 573.37 395.24 577.79 402.27 582.41 409.29 587.13 416.3 592.1 423.3 596.81 430.1 601.13 436.7 605.35 443.28 608.94 449.65 611.82 455.77 615.11 464.81 616.43 481.51 614.36 489.12 612.1 494.05 608.96 498.67 605.04 502.96 600.62 507.21 595.52 511.12 589.83 514.7 583.8 518.23 577.31 521.43 570.45 524.29 563.42 527.13 556.14 529.66 548.69 531.87 541.2 534.1 533.63 536.06 526.03 537.77 518.48 539.55 510.96 541.12 503.49 542.52 496.12 544.06 488.82 545.49 481.61 546.82 474.49 548.38 467.45 549.92 460.5 551.45 453.63 553.28 446.82 555.16 440.07 557.1 433.38 559.39 426.72 561.76 420.1 564.22 413.51 567.04 406.93 569.93 400.37 572.86 393.83 576.11 387.29 579.36 380.77 582.55 374.25 585.95 367.89 589.12 361.72 592.03 355.54 594.99 349.54 597.57 343.73 599.75 335.13 602.64 319 605.58 311.51 605.49 304.28 604.45 291.07 599.06 285.1 594.77 279.35 589.59 268.99 576.54 264.32 568.85 261.18 563.44 258.22 557.71 255.43 551.7 252.49 545.58 249.69 539.24 247.01 532.7 244.14 526.1 241.35 519.34 238.66 512.48 235.74 505.58 232.88 498.59 230.1 491.54 227.09 484.49 224.15 477.39 221.3 470.29 218.26 463.19 215.34 456.08 212.56 448.99 209.66 441.91 206.97 434.85 204.52 427.84 202.04 420.83 199.89 413.86 198.11 406.96 196.42 400.05 195.22 393.36 194.52 386.9 194.01 380.43 194.03 374.18 194.59 368.16 195.4 362.11 196.75 356.29 198.62 350.68 200.75 345.04 203.39 339.62 206.5 334.4 209.84 329.15 213.62 324.09 217.81 319.23 222.15 314.31 226.86 309.58 231.88 305.02 236.99 300.4 242.38 295.93 247.99 291.62 253.64 287.21 259.47 282.95 265.46 278.82 271.44 274.57 277.54 270.44 283.75 266.43 289.91 262.29 296.16 258.24 302.49 254.31 308.76 250.23 315.1 246.25 321.51 242.38 327.86 238.37 334.29 234.47 340.78 230.7 347.23 226.82 353.76 223.08 360.38 219.51 366.96 215.86 373.65 212.41 380.43 209.19 387.19 205.95 394.07 202.98 401.05 200.33 408.03 197.72 415.12 195.47 422.32 193.63" stroke-dasharray="3 7" transform="rotate(32.32, 400, 400)" opacity="0.93"></path><path d="M422.31 204.43C429.11 202.75 435.8 201.53 442.38 200.77 448.94 200.16 455.37 200.02 461.64 200.35 467.89 200.85 473.95 201.83 479.8 203.25 488.37 205.88 504.04 213.55 510.99 218.49 517.41 224.02 527.99 236.91 532.08 244.16 535.5 251.8 539.99 268.25 541.14 276.97 541.78 282.87 542.1 288.92 542.16 295.08 542.35 301.26 542.39 307.55 542.34 313.91 542.59 320.29 542.88 326.75 543.27 333.25 544.11 339.77 545.17 346.33 546.5 352.92 548.39 359.51 550.61 366.14 553.16 372.77 556.29 379.41 559.73 386.05 563.44 392.68 567.61 399.31 571.94 405.93 576.32 412.5 580.93 419.08 585.29 425.45 589.29 431.61 593.21 437.77 596.59 443.7 599.34 449.4 602.6 457.8 604.52 473.28 603.07 480.31 600.06 487.02 589.64 498.9 582.53 504.05 577.26 507.37 571.52 510.38 565.4 513.1 559.08 515.82 552.46 518.27 545.64 520.44 538.73 522.66 531.69 524.64 524.57 526.4 517.45 528.25 510.31 529.92 503.18 531.44 496.1 533.12 489.05 534.69 482.07 536.18 475.15 537.89 468.3 539.57 461.52 541.24 454.8 543.18 448.14 545.15 441.56 547.17 435.02 549.49 428.53 551.87 422.1 554.3 415.7 557.05 409.34 559.83 403.03 562.64 396.73 565.71 390.47 568.76 384.26 571.75 378.05 574.91 372.02 577.86 366.2 580.54 357.55 584.49 341.26 590.44 333.64 592.26 326.23 593.37 312.55 592.7 306.28 590.89 300.22 588.22 289.19 580.05 284.18 574.66 279.28 568.57 270.22 554.32 265.98 546.32 263.06 540.78 260.26 535.01 257.55 529.03 254.67 522.99 251.86 516.78 249.13 510.44 246.19 504.06 243.32 497.58 240.52 491.02 237.51 484.44 234.58 477.8 231.74 471.14 228.74 464.47 225.85 457.78 223.11 451.1 220.27 444.42 217.62 437.75 215.22 431.1 212.8 424.46 210.68 417.85 208.92 411.29 207.24 404.72 206.02 398.36 205.27 392.19 204.66 383.04 206.27 365.72 208.51 357.53 210.39 352.12 212.76 346.89 215.59 341.85 218.62 336.77 222.09 331.87 225.94 327.14 229.96 322.37 234.33 317.75 239.01 313.29 243.8 308.76 248.86 304.37 254.16 300.13 259.52 295.8 265.07 291.59 270.78 287.5 276.51 283.31 282.38 279.23 288.36 275.26 294.33 271.17 300.39 267.17 306.52 263.29 312.63 259.27 318.81 255.36 325.04 251.56 331.24 247.64 337.51 243.83 343.84 240.15 350.13 236.38 356.48 232.75 362.9 229.3 369.3 225.78 375.77 222.46 382.3 219.37 388.83 216.26 395.43 213.41 402.1 210.87 408.76 208.37 415.5 206.21 422.3 204.43" stroke-dasharray="3 0" transform="rotate(36.36, 400, 400)" opacity="0.29"></path><path d="M420.9 215.23C427.28 213.61 433.52 212.42 439.61 211.66 445.69 211.02 451.61 210.83 457.34 211.07 468.72 212.01 479.24 214.7 488.65 218.97 497.78 223.85 505.61 230.23 511.95 237.86 517.87 245.94 522.25 255.12 525.05 265.16 527.69 275.45 529.09 286.45 529.53 297.95 530.6 309.55 531.46 321.57 532.53 333.8 535.26 346.07 538.89 358.53 543.55 371 546.64 377.24 549.97 383.48 553.5 389.7 557.42 395.92 561.46 402.12 565.51 408.27 569.77 414.42 573.79 420.38 577.47 426.12 581.11 431.86 584.26 437.38 586.87 442.67 591.23 453.21 592.81 462.81 591.51 471.35 588.51 479.81 582.73 487.21 574.63 493.5 565.28 499.77 554.22 505.02 542.04 509.3 529.41 513.78 516.19 517.53 502.79 520.67 489.44 524.41 476.12 527.88 463.04 531.2 450.12 535.5 437.41 539.91 425 544.41 418.82 547.07 412.71 549.74 406.66 552.41 400.62 555.31 394.64 558.17 388.73 560.94 382.81 563.88 377.11 566.6 371.6 569.08 366.09 571.61 360.79 573.83 355.69 575.71 345.47 579.32 336.07 581.22 327.56 581.34 318.97 580.8 311.21 578.31 304.31 574.01 297.2 568.97 290.8 562.24 285.07 554.09 278.91 545.39 273.2 535.51 267.91 524.75 261.94 513.72 256.22 502.02 250.78 489.91 244.65 477.73 238.85 465.27 233.59 452.74 230.82 446.47 228.23 440.2 225.89 433.94 223.53 427.68 221.46 421.44 219.72 415.22 218.07 409.01 216.84 402.97 216.05 397.11 215.41 391.25 215.25 385.56 215.55 380.05 216.75 369 219.87 358.61 224.74 348.91 230.39 339.07 237.62 329.82 246.13 321.16 255.12 312.25 265.12 303.81 275.87 295.86 286.76 287.53 298.19 279.57 309.98 272.04 321.71 264.09 333.75 256.53 345.96 249.5 358.1 242.14 370.46 235.4 382.97 229.51 389.22 226.54 395.51 223.83 401.83 221.4 408.15 219.01 414.51 216.94 420.89 215.23" stroke-dasharray="4 3" transform="rotate(40.400000000000006, 400, 400)" opacity="0.08"></path><path d="M418.2 226.03C430.08 223.03 441.31 221.64 451.75 221.82 462.1 222.54 471.54 224.86 479.88 228.66 487.99 233 494.88 238.72 500.41 245.63 505.67 252.96 509.59 261.34 512.2 270.55 514.8 280.01 516.43 290.18 517.33 300.83 518.92 311.62 520.4 322.81 522.11 334.22 525.31 345.69 529.24 357.33 533.99 368.98 540.41 380.65 547.47 392.3 554.71 403.76 562.64 415.21 569.37 425.9 574.41 435.72 578.64 445.51 580.43 454.41 579.71 462.34 577.56 470.23 572.92 477.17 566.12 483.12 558.18 489.11 548.58 494.21 537.78 498.48 526.46 502.98 514.43 506.86 502.07 510.22 489.65 514.13 477.13 517.81 464.74 521.33 452.45 525.71 440.31 530.12 428.46 534.54 416.68 539.88 405.12 545.15 393.9 550.14 382.67 555.68 372.25 560.27 362.66 563.73 353.02 567.09 344.18 568.92 336.15 569.16 328.02 568.88 320.65 566.86 314.02 563.2 307.16 558.93 300.91 553.09 295.23 545.92 289.12 538.28 283.4 529.48 278.04 519.81 272.07 509.87 266.34 499.23 260.89 488.14 254.85 476.96 249.15 465.44 244 453.78 238.57 442.11 233.97 430.34 230.53 418.64 227.38 406.93 225.9 395.8 226.1 385.32 227 374.79 229.68 364.84 233.99 355.49 239.01 346.01 245.53 337.05 253.29 328.6 261.53 319.93 270.79 311.68 280.8 303.86 291.01 295.73 301.8 287.94 312.95 280.58 324.13 272.86 335.62 265.53 347.25 258.73 358.87 251.68 370.66 245.24 382.51 239.62 394.36 233.99 406.3 229.38 418.18 226.04" stroke-dasharray="3 6" transform="rotate(44.44, 400, 400)" opacity="0.77"></path><path d="M414.36 236.84C425.35 233.96 435.64 232.56 445.1 232.61 454.48 233.13 462.95 235.11 470.36 238.45 477.62 242.26 483.74 247.35 488.66 253.56 493.43 260.14 497.07 267.72 499.63 276.1 502.31 284.72 504.24 294.03 505.62 303.82 507.7 313.75 509.74 324.08 512 334.63 515.56 345.25 519.71 356.05 524.48 366.85 530.63 377.69 537.24 388.49 543.9 399.11 551.15 409.73 557.31 419.63 561.97 428.73 566.02 437.8 567.95 446.06 567.7 453.45 566.27 460.83 562.62 467.37 557.02 473.04 550.4 478.78 542.18 483.77 532.76 488.04 522.8 492.55 512.03 496.54 500.81 500.09 489.45 504.14 477.87 507.97 466.31 511.62 454.79 516.02 443.36 520.4 432.16 524.7 421 529.77 410.06 534.72 399.44 539.34 388.82 544.42 378.98 548.62 369.93 551.77 360.82 554.88 352.45 556.62 344.83 556.95 337.08 556.87 330 555.24 323.58 552.15 316.91 548.55 310.76 543.52 305.11 537.26 299.04 530.59 293.31 522.83 287.91 514.19 281.96 505.32 276.25 495.73 270.83 485.65 264.91 475.46 259.35 464.89 254.35 454.12 249.12 443.33 244.68 432.37 241.33 421.4 238.25 410.43 236.71 399.94 236.72 389.99 237.34 380 239.59 370.5 243.34 361.51 247.75 352.42 253.55 343.76 260.54 335.56 268 327.16 276.46 319.13 285.66 311.5 295.11 303.61 305.15 296.04 315.58 288.88 326.08 281.44 336.9 274.39 347.86 267.87 358.84 261.14 369.96 255.02 381.08 249.7 392.22 244.38 403.36 240.02 414.36 236.84" stroke-dasharray="5 0" transform="rotate(48.48, 400, 400)" opacity="0.17"></path><path d="M409.62 247.64C419.72 244.9 429.1 243.51 437.65 243.45 446.14 243.78 453.76 245.44 460.39 248.34 466.92 251.66 472.44 256.15 476.93 261.67 481.36 267.53 484.86 274.32 487.48 281.86 490.31 289.64 492.57 298.07 494.42 306.98 496.95 316.03 499.48 325.48 502.19 335.15 506.01 344.9 510.28 354.83 515 364.77 520.86 374.75 527 384.71 533.1 394.5 539.69 404.29 545.28 413.42 549.56 421.83 553.38 430.23 555.38 437.9 555.49 444.81 554.66 451.71 551.88 457.89 547.33 463.33 541.92 468.85 535.01 473.73 526.91 478 518.3 482.52 508.82 486.6 498.8 490.28 488.59 494.41 478.06 498.34 467.45 502.07 456.82 506.44 446.19 510.73 435.72 514.88 425.29 519.68 415.01 524.29 405.03 528.53 395.03 533.18 385.75 536.99 377.2 539.85 368.58 542.69 360.64 544.32 353.36 544.7 345.95 544.77 339.11 543.47 332.85 540.86 326.34 537.85 320.28 533.56 314.64 528.12 308.62 522.34 302.9 515.54 297.48 507.9 291.59 500.04 285.94 491.47 280.6 482.37 274.84 473.18 269.46 463.56 264.62 453.67 259.62 443.77 255.38 433.64 252.14 423.42 249.15 413.2 247.57 403.37 247.39 393.97 247.75 384.55 249.6 375.52 252.82 366.93 256.62 358.25 261.72 349.93 267.93 342.01 274.59 333.92 282.2 326.16 290.55 318.77 299.17 311.17 308.38 303.87 317.99 296.97 327.72 289.85 337.77 283.12 347.96 276.9 358.19 270.54 368.55 264.76 378.87 259.74 389.22 254.75 399.53 250.65 409.62 247.64" stroke-dasharray="10 5" transform="rotate(52.52, 400, 400)" opacity="0.21"></path><path d="M404.29 258.44C413.5 255.85 422 254.49 429.73 254.32 437.42 254.48 444.28 255.86 450.28 258.35 456.21 261.19 461.28 265.11 465.47 269.97 469.68 275.12 473.13 281.14 475.9 287.86 478.91 294.8 481.49 302.37 483.78 310.39 486.68 318.55 489.6 327.1 492.65 335.89 496.64 344.75 500.96 353.79 505.55 362.87 511.08 371.98 516.75 381.09 522.29 390.07 528.25 399.05 533.29 407.45 537.18 415.21 540.74 422.96 542.74 430.08 543.12 436.53 542.77 443 540.72 448.85 537.1 454.07 532.77 459.39 527.05 464.16 520.21 468.43 512.89 472.92 504.69 477.03 495.89 480.8 486.88 484.96 477.47 488.92 467.86 492.67 458.22 496.95 448.48 501.11 438.83 505.08 429.18 509.58 419.63 513.85 410.29 517.73 400.96 521.95 392.24 525.39 384.16 527.95 376.03 530.53 368.47 532.04 361.5 532.43 354.4 532.61 347.79 531.58 341.66 529.38 335.31 526.88 329.34 523.23 323.73 518.54 317.79 513.58 312.11 507.66 306.73 500.94 300.94 494.04 295.4 486.44 290.19 478.3 284.63 470.07 279.46 461.39 274.83 452.39 270.08 443.37 266.05 434.08 262.95 424.63 260.06 415.18 258.46 406.02 258.13 397.21 258.26 388.37 259.73 379.85 262.44 371.68 265.66 363.45 270.07 355.51 275.51 347.92 281.36 340.2 288.11 332.77 295.57 325.67 303.31 318.4 311.63 311.43 320.36 304.85 329.23 298.09 338.42 291.71 347.75 285.84 357.16 279.87 366.68 274.46 376.15 269.76 385.65 265.1 395.09 261.27 404.29 258.44" stroke-dasharray="6 6" transform="rotate(56.56, 400, 400)" opacity="0.77"></path><path d="M398.7 269.25C407.02 266.81 414.7 265.48 421.68 265.23 428.63 265.25 434.85 266.36 440.32 268.47 445.77 270.88 450.49 274.25 454.49 278.48 458.56 282.96 462.03 288.23 464.96 294.16 468.16 300.28 471.04 306.99 473.69 314.14 476.89 321.41 480.1 329.06 483.39 336.96 487.44 344.92 491.71 353.08 496.13 361.3 501.29 369.54 506.48 377.81 511.48 385.99 516.83 394.17 521.34 401.85 524.84 408.98 528.11 416.11 530.06 422.71 530.62 428.74 530.63 434.79 529.18 440.33 526.36 445.33 522.97 450.44 518.32 455.09 512.63 459.31 506.52 463.74 499.56 467.85 491.96 471.64 484.15 475.77 475.87 479.7 467.33 483.41 458.72 487.55 449.94 491.53 441.15 495.29 432.35 499.48 423.57 503.4 414.92 506.93 406.27 510.73 398.13 513.81 390.53 516.09 382.89 518.4 375.72 519.77 369.04 520.16 362.25 520.4 355.87 519.58 349.89 517.74 343.72 515.67 337.86 512.58 332.32 508.56 326.5 504.32 320.93 499.21 315.63 493.35 310.01 487.34 304.63 480.66 299.59 473.44 294.29 466.14 289.37 458.37 284.98 450.25 280.5 442.11 276.7 433.66 273.75 424.99 271 416.32 269.4 407.85 268.94 399.65 268.86 391.43 269.99 383.45 272.22 375.76 274.89 368.02 278.64 360.52 283.32 353.31 288.37 346.01 294.26 338.95 300.83 332.21 307.66 325.33 315.05 318.74 322.85 312.51 330.8 306.17 339.06 300.19 347.5 294.69 356 289.13 364.62 284.1 373.21 279.75 381.82 275.44 390.37 271.88 398.7 269.25" stroke-dasharray="11 10" transform="rotate(60.599999999999994, 400, 400)" opacity="0.35"></path><path d="M393.18 280.05C400.65 277.78 407.56 276.5 413.85 276.18 422.96 276.52 438.1 282.15 444.2 287.21 448.17 291.05 451.68 295.62 454.77 300.78 458.12 306.11 461.23 311.98 464.16 318.27 467.56 324.67 470.95 331.44 474.37 338.46 478.4 345.53 482.55 352.81 486.73 360.18 491.5 367.56 496.21 375.01 500.68 382.4 505.43 389.79 509.43 396.78 512.55 403.3 516.43 412.87 517.8 429.78 515.17 437.17 512.57 442.05 508.86 446.55 504.21 450.69 499.21 455.01 493.39 459.05 486.94 462.8 480.29 466.84 473.14 470.67 465.67 474.28 458.11 478.23 450.32 482 442.43 485.52 434.53 489.37 426.56 492.95 418.62 496.12 410.69 499.52 403.16 502.25 396.05 504.26 388.91 506.31 382.15 507.53 375.79 507.9 369.33 508.16 363.2 507.51 357.41 505.97 351.46 504.26 345.77 501.65 340.36 498.22 334.72 494.63 329.31 490.25 324.16 485.18 318.77 479.98 313.63 474.16 308.81 467.81 303.81 461.4 299.18 454.51 295.06 447.25 290.88 439.97 287.33 432.36 284.56 424.48 281.95 416.61 280.37 408.85 279.81 401.3 279.56 393.72 280.38 386.32 282.18 379.16 284.33 371.95 287.45 364.93 291.41 358.17 295.69 351.33 300.74 344.72 306.41 338.38 312.32 331.96 318.78 325.8 325.62 319.98 332.62 314.09 339.93 308.54 347.42 303.46 354.98 298.33 362.67 293.71 370.35 289.71 378.05 285.75 385.71 282.49 393.18 280.05" stroke-dasharray="6 2" transform="rotate(64.64, 400, 400)" opacity="0.08"></path><path d="M388.09 290.86C397.81 288.15 414.82 287.31 422.06 289.08 428.86 291.91 440.39 301.37 445.36 307.76 448.81 312.32 452.07 317.39 455.18 322.86 458.67 328.41 462.14 334.32 465.58 340.48 469.5 346.68 473.44 353.09 477.35 359.62 481.69 366.16 485.92 372.79 489.88 379.41 494.05 386.04 497.55 392.33 500.29 398.26 503.78 406.98 505.47 422.65 503.56 429.62 500.17 436.39 488.57 448.66 480.8 454.27 475.25 458.15 469.18 461.83 462.75 465.28 456.24 469 449.44 472.51 442.47 475.76 435.48 479.27 428.35 482.49 421.17 485.32 413.99 488.33 407.09 490.72 400.51 492.47 393.92 494.26 387.6 495.32 381.6 495.65 372.61 495.65 355.75 491.58 347.81 487.58 342.43 484.55 337.26 480.82 332.34 476.47 327.24 472.02 322.38 466.99 317.85 461.46 313.19 455.88 308.89 449.84 305.07 443.42 301.22 436.98 297.94 430.2 295.37 423.12 292.92 416.05 291.39 409.04 290.76 402.15 290.37 395.26 290.91 388.48 292.31 381.89 294 375.26 296.53 368.79 299.82 362.53 303.36 356.22 307.6 350.1 312.42 344.23 317.43 338.31 322.95 332.63 328.85 327.27 334.88 321.86 341.23 316.79 347.77 312.14 354.37 307.48 361.12 303.27 367.88 299.64 374.67 296.05 381.45 293.09 388.09 290.86" stroke-dasharray="9 6" transform="rotate(68.68, 400, 400)" opacity="0.96"></path><path d="M383.73 301.66C395.41 297.98 405.65 297.41 414.24 299.57 422.98 302.33 430.46 307.7 436.78 315.1 443.91 322.92 450.64 332.47 456.99 343.08 464.77 353.84 472.39 365.4 479.07 377.14 486.42 388.87 491.06 399.63 492.63 409.14 493.44 418.77 490.75 427.4 485.02 434.89 478.47 442.88 469.35 450.13 458.54 456.39 447.48 463.46 435.19 469.71 422.39 474.51 409.59 479.89 397.47 482.88 386.36 483.44 375.04 483.86 364.38 481.53 354.66 476.7 344.47 471.53 334.97 463.96 326.71 454.47 318.11 444.83 310.97 433.5 306.17 420.96 301.81 408.43 300.74 395.92 302.64 383.98 305.42 371.98 311.08 360.4 318.91 349.77 327.39 338.99 337.62 329.11 348.76 320.76 360.13 312.41 372.05 305.78 383.73 301.66" stroke-dasharray="10 5" transform="rotate(72.72, 400, 400)" opacity="0.51"></path><path d="M380.39 312.46C390.52 309.15 399.63 308.5 407.53 310.19 415.58 312.32 422.74 316.7 429.01 322.85 435.93 329.31 442.49 337.32 448.59 346.34 455.71 355.47 462.5 365.41 468.27 375.66 474.54 385.9 478.49 395.46 479.9 404.05 480.84 412.76 478.9 420.71 474.41 427.71 469.35 435.09 462.02 441.81 453.05 447.6 443.88 453.98 433.42 459.53 422.23 463.71 411.03 468.32 400.18 470.83 390.02 471.26 379.74 471.64 369.93 469.69 360.92 465.62 351.6 461.34 342.92 454.98 335.4 446.91 327.69 438.74 321.3 429 316.98 418.08 313 407.16 311.82 396.13 313.17 385.51 315.17 374.86 319.62 364.54 325.97 355.04 332.82 345.47 341.25 336.69 350.59 329.3 360.11 321.95 370.26 316.12 380.39 312.46" stroke-dasharray="8 10" transform="rotate(76.76, 400, 400)" opacity="0.19"></path><path d="M378.27 323.27C386.91 320.35 394.9 319.66 402.06 320.94 409.33 322.53 416.02 326.01 422.04 331 428.53 336.21 434.69 342.78 440.34 350.29 446.68 357.87 452.58 366.25 457.46 375.02 462.7 383.79 465.98 392.12 467.18 399.75 468.12 407.45 466.75 414.6 463.28 420.98 459.44 427.63 453.66 433.7 446.38 438.91 438.94 444.53 430.24 449.35 420.68 452.91 411.11 456.78 401.63 458.84 392.6 459.15 383.5 459.45 374.72 457.82 366.61 454.43 358.31 450.92 350.6 445.65 343.94 438.91 337.18 432.09 331.6 423.88 327.78 414.56 324.23 405.25 323.02 395.75 323.91 386.54 325.24 377.32 328.63 368.34 333.64 360.07 339 351.78 345.76 344.18 353.4 337.8 361.18 331.47 369.63 326.44 378.27 323.27" stroke-dasharray="7 9" transform="rotate(80.80000000000001, 400, 400)" opacity="0.89"></path><path d="M377.5 334.07C384.68 331.57 391.53 330.9 397.84 331.82 404.24 332.95 410.28 335.63 415.81 339.56 421.65 343.64 427.2 348.87 432.22 354.95 437.68 361.07 442.65 367.93 446.65 375.25 450.91 382.56 453.53 389.63 454.51 396.19 455.35 402.82 454.38 409.06 451.74 414.67 448.88 420.47 444.42 425.77 438.66 430.3 432.79 435.09 425.76 439.16 417.84 442.1 409.92 445.27 401.91 446.9 394.16 447.09 386.39 447.3 378.81 445.95 371.77 443.17 364.65 440.33 358.03 436.06 352.32 430.55 346.59 425 341.86 418.26 338.59 410.55 335.51 402.83 334.33 394.9 334.85 387.16 335.66 379.43 338.13 371.88 341.95 364.92 345.99 357.95 351.24 351.59 357.31 346.24 363.47 340.95 370.31 336.75 377.5 334.07" stroke-dasharray="10 8" transform="rotate(84.84, 400, 400)" opacity="0.26"></path><path d="M378.12 344.87C389.64 340.91 400.83 342.65 410.25 348.52 420.42 354.73 429.75 364.61 435.85 376.33 442.56 388.05 443.77 399.44 439.92 408.76 435.64 418.52 426.45 426.78 413.9 431.3 401.34 436.36 388.03 436.32 376.47 431.92 364.82 427.42 354.83 418.43 349.4 406.16 344.46 393.9 345.46 380.82 350.91 369.62 356.86 358.47 366.6 349.31 378.12 344.87" stroke-dasharray="11 11" transform="rotate(88.88, 400, 400)" opacity="0.80"></path><path d="M380.11 355.68C388.79 352.6 397.64 353.7 405.26 357.88 413.27 362.23 420.49 369.42 425.04 378.24 429.92 387.05 430.76 395.87 427.96 403.19 425 410.75 418.4 417.1 409.09 420.5 399.78 424.2 389.66 424.06 380.8 420.72 371.96 417.36 364.37 410.7 360.2 401.57 356.32 392.43 356.76 382.64 360.5 374.23 364.48 365.89 371.43 359.03 380.11 355.68" stroke-dasharray="11 7" transform="rotate(92.92, 400, 400)" opacity="0.64"></path><path d="M383.33 366.48C395 362.38 408.42 369.09 414.23 380.9 420.63 392.7 415.97 405.31 403.72 409.69 391.45 414.6 376.76 409.01 371.01 396.91 365.78 384.81 371.66 371.07 383.33 366.48" stroke-dasharray="3 8" transform="rotate(96.96, 400, 400)" opacity="0.69"></path></g></svg>