<svg xmlns="http://www.w3.org/2000/svg" version="1.1" xmlns:xlink="http://www.w3.org/1999/xlink" xmlns:svgjs="http://svgjs.dev/svgjs" viewBox="0 0 800 800"><g transform="matrix(1,0,0,1,0,0)"><path d="M232.15100357225583 272.48706630450204C234.53276256174394 271.1122047805118 237.46723743825606 271.1122047805118 239.84899642774417 272.4874512041448L282.1510067672236 296.9104882371098C284.5327657567117 298.2853497611 286.00000319496775 300.82684210233947 286.00000319496775 303.5769500499627V352.42302411589276C286.00000319496775 355.17313206351594 284.5327657567117 357.71462440475545 282.1510067672236 359.08987082838837L239.84899642774417 383.51290786135337C237.46723743825606 384.88776938534363 234.53276256174394 384.88776938534363 232.15100357225583 383.5125229617106L189.84899323277642 359.0894859287456C187.46723424328832 357.71462440475545 185.99999680503225 355.17313206351594 185.99999680503225 352.42302411589276V303.5769500499627C185.99999680503225 300.82684210233947 187.46723424328832 298.2853497611 189.84899323277642 296.91010333746704L232.15100357225583 272.48706630450204Z " stroke-width="4" stroke="#ff3895" fill="none" opacity="0.1" transform="rotate(100, 400, 400)"></path><path d="M245.17617592056152 269.234919589546C247.9548947416309 267.6309144782241 251.37844876422847 267.6309144782241 254.15716758529786 269.2353686391292L303.50951298135715 297.7289118442551C306.2882318024266 299.332916955577 308.00000881372534 302.2979913536897 308.00000881372534 305.5064506259168V362.4935370361685C308.00000881372534 365.70199630839556 306.2882318024266 368.6670707065083 303.50951298135715 370.2715248674134L254.15716758529786 398.7650680725393C251.37844876422847 400.3690731838612 247.9548947416309 400.3690731838612 245.17617592056152 398.764619022956L195.8238305245022 370.2710758178302C193.04511170343275 368.6670707065083 191.333334692134 365.70199630839556 191.333334692134 362.4935370361685V305.5064506259168C191.333334692134 302.2979913536897 193.04511170343275 299.332916955577 195.8238305245022 297.7284627946718L245.17617592056152 269.234919589546Z " stroke-width="5" stroke="#f645a1" fill="none" opacity="0.175" transform="rotate(91.66666666666667, 400, 400)"></path><path d="M258.2013330100781 265.98277287458995C261.3770116627289 264.1496241759363 265.28964483141175 264.1496241759363 268.46532348406254 265.9832860741136L324.86800393670177 298.54733545140033C328.0436825893525 300.3804841500539 329.99999917369394 303.7691406050399 329.99999917369394 307.43595120187086V372.5640499564442C329.99999917369394 376.2308605532752 328.0436825893525 379.61951700826114 324.86800393670177 381.45317890643844L268.46532348406254 414.0172282837251C265.28964483141175 415.85037698237875 261.3770116627289 415.85037698237875 258.2013330100781 414.01671508420145L201.79865255743886 381.45266570691473C198.62297390478807 379.61951700826114 196.66665732044663 376.2308605532752 196.66665732044663 372.5640499564442V307.43595120187086C196.66665732044663 303.7691406050399 198.62297390478807 300.3804841500539 201.79865255743886 298.5468222518766L258.2013330100781 265.98277287458995Z " stroke-width="6" stroke="#ed50ab" fill="none" opacity="0.25" transform="rotate(83.33333333333333, 400, 400)"></path><path d="M271.22650535838375 262.7306337890284C274.7991438426159 260.6683415030431 279.2008561573841 260.6683415030431 282.77349464161625 262.7312111384926L346.22651015083534 299.3657666879401C349.79914863506747 301.42805897392543 352.0000047924516 305.24029748578465 352.0000047924516 309.3654594072195V382.63457050611447C352.0000047924516 386.75973242754935 349.79914863506747 390.5719709394085 346.22651015083534 392.634840574858L282.77349464161625 429.26939612430556C279.2008561573841 431.3316884102908 274.7991438426159 431.3316884102908 271.22650535838375 429.2688187748414L207.77348984916466 392.63426322539385C204.20085136493253 390.5719709394085 201.9999952075484 386.75973242754935 201.9999952075484 382.63457050611447V309.3654594072195C201.9999952075484 305.24029748578465 204.20085136493253 301.42805897392543 207.77348984916466 299.36518933847594L271.22650535838375 262.7306337890284Z " stroke-width="7" stroke="#e35ab5" fill="none" opacity="0.32499999999999996" transform="rotate(75, 400, 400)"></path><path d="M284.2516624479004 259.4784641858888C288.2212607637139 257.1870283125718 293.11205222456744 257.1870283125718 297.0816505403809 259.47910568529346L367.58500110617996 300.1841674069018C371.55459942199343 302.4756032802188 373.99999515242024 306.71142384895126 373.99999515242024 311.29493709498996V392.7050605382066C373.99999515242024 397.28857378424533 371.55459942199343 401.52439435297777 367.58500110617996 403.81647172569944L297.0816505403809 444.5215334473078C293.11205222456744 446.8129693206248 288.2212607637139 446.8129693206248 284.2516624479004 444.5208919479032L213.74831188210135 403.8158302262948C209.77871356628788 401.52439435297777 207.33331783586107 397.28857378424533 207.33331783586107 392.7050605382066V311.29493709498996C207.33331783586107 306.71142384895126 209.77871356628788 302.4756032802188 213.74831188210135 300.18352590749714L284.2516624479004 259.4784641858888Z " stroke-width="8" stroke="#d962bf" fill="none" opacity="0.4" transform="rotate(66.66666666666666, 400, 400)"></path><path d="M297.276834796206 256.22630221214365C301.6433929436008 253.70572275149496 307.02326355053975 253.70572275149496 311.38982169793456 256.2270078614888L388.94350732031353 301.00257575525796C393.31006546770834 303.5231552159067 396.00000077117784 308.1825578415124 396.00000077117784 313.2244224121549V402.7755581996933C396.00000077117784 407.81742277033584 393.31006546770834 412.47682539594155 388.94350732031353 414.9981105059354L311.38982169793456 459.7736783997045C307.02326355053975 462.29425786035324 301.6433929436008 462.29425786035324 297.276834796206 459.7729727503595L219.7231491738271 414.9974048565903C215.35659102643223 412.47682539594155 212.6666557229628 407.81742277033584 212.6666557229628 402.7755581996933V313.2244224121549C212.6666557229628 308.1825578415124 215.35659102643223 303.5231552159067 219.7231491738271 301.0018701059129L297.276834796206 256.22630221214365Z " stroke-width="9" stroke="#cf6ac8" fill="none" opacity="0.475" transform="rotate(58.33333333333333, 400, 400)"></path><path d="M310.30200714451166 252.97415549718764C315.0655251234879 250.22443244920723 320.9344748765121 250.22443244920723 325.69799285548834 252.9749252964732L410.30201353444716 301.8209993624032C415.0655315134233 304.57072241038367 418.0000063899355 309.6537070928626 418.0000063899355 315.153922988109V412.84607111996905C418.0000063899355 418.34628701521547 415.0655315134233 423.42927169769445 410.30201353444716 426.1797645449604L325.69799285548834 475.0258386108904C320.9344748765121 477.77556165887086 315.0655251234879 477.77556165887086 310.30200714451166 475.02506881160485L225.69798646555284 426.17899474567486C220.9344684865767 423.42927169769445 217.9999936100645 418.34628701521547 217.9999936100645 412.84607111996905V315.153922988109C217.9999936100645 309.6537070928626 220.9344684865767 304.57072241038367 225.69798646555284 301.82022956311766L310.30200714451166 252.97415549718764Z " stroke-width="10" stroke="#c472d1" fill="none" opacity="0.5499999999999999" transform="rotate(50, 400, 400)"></path><path d="M323.32716423402826 249.72199352344253C328.48764204458575 246.7431268881304 334.84567094369544 246.7431268881304 340.00614875425293 249.72282747266854L431.6605044897917 302.63940771075943C436.8209823003492 305.61827434607153 439.999996749904 311.1248410854237 439.999996749904 317.083408305274V422.91656878145574C439.999996749904 428.87513600130603 436.8209823003492 434.3817027406583 431.6605044897917 437.36140332519636L340.00614875425293 490.2779835632872C334.84567094369544 493.25685019859935 328.48764204458575 493.25685019859935 323.32716423402826 490.2771496140612L231.67280849848953 437.3605693759704C226.51233068793198 434.3817027406583 223.33331623837717 428.87513600130603 223.33331623837717 422.91656878145574V317.083408305274C223.33331623837717 311.1248410854237 226.51233068793198 305.61827434607153 231.67280849848953 302.6385737615334L323.32716423402826 249.72199352344253Z " stroke-width="11" stroke="#b879d9" fill="none" opacity="0.625" transform="rotate(41.666666666666664, 400, 400)"></path><path d="M336.3523365823339 246.4698696966701C341.90977422447276 243.26185947402627 348.7568822696678 243.26185947402627 354.31431991180665 246.47076779583657L453.0190107039253 303.45785420608826C458.5764483460642 306.6658644287321 462.0000023686617 312.5960132249575 462.0000023686617 319.0129317694117V432.9871045899151C462.0000023686617 439.40402313436925 458.5764483460642 445.3341719305947 453.0190107039253 448.543080252405L354.31431991180665 505.5301666626567C348.7568822696678 508.7381768853005 341.90977422447276 508.7381768853005 336.3523365823339 505.5292685634902L237.64764579021528 448.5421821532385C232.09020814807644 445.3341719305947 228.66665412547889 439.40402313436925 228.66665412547889 432.9871045899151V319.0129317694117C228.66665412547889 312.5960132249575 232.09020814807644 306.6658644287321 237.64764579021528 303.4569561069218L336.3523365823339 246.4698696966701Z " stroke-width="12" stroke="#ab7fe1" fill="none" opacity="0.7" transform="rotate(33.33333333333333, 400, 400)"></path><path d="M349.3775089306396 243.21770772292498C355.3319064043598 239.78055391294944 362.6680935956402 239.78055391294944 368.6224910693604 243.21866997203193L474.377516918059 304.27626255444443C480.33191439177915 307.71341636441997 484.0000079874194 314.06714721751865 484.0000079874194 320.9424170865767V443.0576022514017C484.0000079874194 449.93287212045976 480.33191439177915 456.28660297355844 474.377516918059 459.7247190326409L368.6224910693604 520.7823116150535C362.6680935956402 524.2194654250291 355.3319064043598 524.2194654250291 349.3775089306396 520.7813493659464L243.62248308194108 459.723756783534C237.66808560822085 456.28660297355844 233.99999201258066 449.93287212045976 233.99999201258066 443.0576022514017V320.9424170865767C233.99999201258066 314.06714721751865 237.66808560822085 307.71341636441997 243.62248308194108 304.2753003053375L349.3775089306396 243.21770772292498Z " stroke-width="13" stroke="#9e86e9" fill="none" opacity="0.7749999999999999" transform="rotate(25, 400, 400)"></path><path d="M362.4026660201562 239.96553049039082C368.75402332545775 236.2992330930836 376.5792896628235 236.2992330930836 382.9306469681251 239.9665568894382L495.73600787340354 305.0946556440116C502.087365178705 308.7609530413188 505.9999983473879 315.5382659512907 505.9999983473879 322.87188714495267V453.1280846540993C505.9999983473879 460.46170584776127 502.087365178705 467.2390187577332 495.73600787340354 470.9063425540878L382.9306469681251 536.0344413086611C376.5792896628235 539.7007387059684 368.75402332545775 539.7007387059684 362.4026660201562 536.0334149096138L249.5973051148777 470.9053161550404C243.2459478095762 467.2390187577332 239.33331464089326 460.46170584776127 239.33331464089326 453.1280846540993V322.87188714495267C239.33331464089326 315.5382659512907 243.2459478095762 308.7609530413188 249.5973051148777 305.0936292449642L362.4026660201562 239.96553049039082Z " stroke-width="14" stroke="#8f8cf1" fill="none" opacity="0.85" transform="rotate(16.666666666666657, 400, 400)"></path><path d="M375.42785362725095 236.7133685166457C382.1761707641338 232.81792753200676 390.49051624758494 232.81792753200676 397.2388333844678 236.7144590656336L517.0945293463262 305.91306399236777C523.8428464832091 309.80850497700675 528.0000192249347 317.0093999438519 528.0000192249347 324.8013724621177V463.1985823155861C528.0000192249347 470.9905548338519 523.8428464832091 478.19144980069706 517.0945293463262 482.0879813343238L397.2388333844678 551.286586261058C390.49051624758494 555.1820272456969 382.1761707641338 555.1820272456969 375.42785362725095 551.2854957120701L255.57215766539258 482.086890785336C248.82384052850966 478.19144980069706 244.6666677867841 470.9905548338519 244.6666677867841 463.1985823155861V324.8013724621177C244.6666677867841 317.0093999438519 248.82384052850966 309.80850497700675 255.57215766539258 305.91197344337996L375.42785362725095 236.7133685166457Z " stroke-width="15" stroke="#7e91f8" fill="none" opacity="0.9249999999999999" transform="rotate(8.333333333333329, 400, 400)"></path><path d="M388.4530107167675 233.46125231926777C395.59828768523175 229.33666774729716 404.40171231476825 229.33666774729716 411.5469892832325 233.46240701819613L538.4530203016707 306.7315181170911C545.5982972701349 310.8561026890618 550.0000095849032 318.48057971278024 550.0000095849032 326.7309035556499V473.2691257534399C550.0000095849032 481.5194495963096 545.5982972701349 489.14392662002797 538.4530203016707 493.26966589092694L411.5469892832325 566.538776989822C404.40171231476825 570.6633615617925 395.59828768523175 570.6633615617925 388.4530107167675 566.5376222908938L261.54697969832927 493.26851119199864C254.401702729865 489.14392662002797 249.99999041509682 481.5194495963096 249.99999041509682 473.2691257534399V326.7309035556499C249.99999041509682 318.48057971278024 254.401702729865 310.8561026890618 261.54697969832927 306.7303634181629L388.4530107167675 233.46125231926777Z " stroke-width="16" stroke="#6b97ff" fill="none" opacity="0.9999999999999999" transform="rotate(0, 400, 400)"></path></g></svg>