<svg xmlns="http://www.w3.org/2000/svg" version="1.1" xmlns:xlink="http://www.w3.org/1999/xlink" xmlns:svgjs="http://svgjs.dev/svgjs" viewBox="0 0 800 800"><g fill="none" stroke-width="3" stroke="hsl(282, 100%, 75%)" stroke-linecap="round" transform="matrix(1.2,0,0,1.2,-80.00000534057614,-79.99999847412107)"><line x1="163" y1="400" x2="637" y2="400" transform="rotate(0, 400, 400)" opacity="0.66"></line><line x1="163" y1="400" x2="637" y2="400" transform="rotate(4, 400, 400)" opacity="0.38"></line><line x1="411.5" y1="400" x2="388.5" y2="400" transform="rotate(8, 400, 400)" opacity="0.12"></line><line x1="520.5" y1="400" x2="279.5" y2="400" transform="rotate(12, 400, 400)" opacity="0.22"></line><line x1="63.5" y1="400" x2="736.5" y2="400" transform="rotate(16, 400, 400)" opacity="0.47"></line><line x1="95.5" y1="400" x2="704.5" y2="400" transform="rotate(20, 400, 400)" opacity="0.64"></line><line x1="698.5" y1="400" x2="101.5" y2="400" transform="rotate(24, 400, 400)" opacity="0.20"></line><line x1="284" y1="400" x2="516" y2="400" transform="rotate(28, 400, 400)" opacity="0.97"></line><line x1="61.5" y1="400" x2="738.5" y2="400" transform="rotate(32, 400, 400)" opacity="0.61"></line><line x1="66" y1="400" x2="734" y2="400" transform="rotate(36, 400, 400)" opacity="0.75"></line><line x1="221.5" y1="400" x2="578.5" y2="400" transform="rotate(40, 400, 400)" opacity="0.58"></line><line x1="304.5" y1="400" x2="495.5" y2="400" transform="rotate(44, 400, 400)" opacity="0.71"></line><line x1="70" y1="400" x2="730" y2="400" transform="rotate(48, 400, 400)" opacity="0.96"></line><line x1="182" y1="400" x2="618" y2="400" transform="rotate(52, 400, 400)" opacity="0.81"></line><line x1="77.5" y1="400" x2="722.5" y2="400" transform="rotate(56, 400, 400)" opacity="0.93"></line><line x1="598" y1="400" x2="202" y2="400" transform="rotate(60, 400, 400)" opacity="0.12"></line><line x1="611.5" y1="400" x2="188.5" y2="400" transform="rotate(64, 400, 400)" opacity="0.87"></line><line x1="267" y1="400" x2="533" y2="400" transform="rotate(68, 400, 400)" opacity="0.58"></line><line x1="27" y1="400" x2="773" y2="400" transform="rotate(72, 400, 400)" opacity="0.81"></line><line x1="557.5" y1="400" x2="242.5" y2="400" transform="rotate(76, 400, 400)" opacity="0.96"></line><line x1="126" y1="400" x2="674" y2="400" transform="rotate(80, 400, 400)" opacity="0.09"></line><line x1="229" y1="400" x2="571" y2="400" transform="rotate(84, 400, 400)" opacity="0.11"></line><line x1="674.5" y1="400" x2="125.5" y2="400" transform="rotate(88, 400, 400)" opacity="0.76"></line><line x1="30.5" y1="400" x2="769.5" y2="400" transform="rotate(92, 400, 400)" opacity="0.88"></line><line x1="75.5" y1="400" x2="724.5" y2="400" transform="rotate(96, 400, 400)" opacity="0.69"></line><line x1="186.5" y1="400" x2="613.5" y2="400" transform="rotate(100, 400, 400)" opacity="0.23"></line><line x1="207.5" y1="400" x2="592.5" y2="400" transform="rotate(104, 400, 400)" opacity="0.26"></line><line x1="162.5" y1="400" x2="637.5" y2="400" transform="rotate(108, 400, 400)" opacity="0.27"></line><line x1="458" y1="400" x2="342" y2="400" transform="rotate(112, 400, 400)" opacity="0.13"></line><line x1="464" y1="400" x2="336" y2="400" transform="rotate(116, 400, 400)" opacity="0.85"></line><line x1="646.5" y1="400" x2="153.5" y2="400" transform="rotate(120, 400, 400)" opacity="0.61"></line><line x1="183" y1="400" x2="617" y2="400" transform="rotate(124, 400, 400)" opacity="0.45"></line><line x1="125" y1="400" x2="675" y2="400" transform="rotate(128, 400, 400)" opacity="0.42"></line><line x1="700" y1="400" x2="100" y2="400" transform="rotate(132, 400, 400)" opacity="0.28"></line><line x1="581" y1="400" x2="219" y2="400" transform="rotate(136, 400, 400)" opacity="0.19"></line><line x1="187.5" y1="400" x2="612.5" y2="400" transform="rotate(140, 400, 400)" opacity="0.07"></line><line x1="370.5" y1="400" x2="429.5" y2="400" transform="rotate(144, 400, 400)" opacity="0.37"></line><line x1="736.5" y1="400" x2="63.5" y2="400" transform="rotate(148, 400, 400)" opacity="0.74"></line><line x1="716" y1="400" x2="84" y2="400" transform="rotate(152, 400, 400)" opacity="0.26"></line><line x1="519.5" y1="400" x2="280.5" y2="400" transform="rotate(156, 400, 400)" opacity="0.69"></line><line x1="49" y1="400" x2="751" y2="400" transform="rotate(160, 400, 400)" opacity="0.60"></line><line x1="736.5" y1="400" x2="63.5" y2="400" transform="rotate(164, 400, 400)" opacity="0.20"></line><line x1="123.5" y1="400" x2="676.5" y2="400" transform="rotate(168, 400, 400)" opacity="0.47"></line><line x1="278" y1="400" x2="522" y2="400" transform="rotate(172, 400, 400)" opacity="0.81"></line><line x1="340.5" y1="400" x2="459.5" y2="400" transform="rotate(176, 400, 400)" opacity="0.45"></line><line x1="485" y1="400" x2="315" y2="400" transform="rotate(180, 400, 400)" opacity="0.44"></line><line x1="112.5" y1="400" x2="687.5" y2="400" transform="rotate(184, 400, 400)" opacity="0.53"></line><line x1="558" y1="400" x2="242" y2="400" transform="rotate(188, 400, 400)" opacity="0.13"></line><line x1="433" y1="400" x2="367" y2="400" transform="rotate(192, 400, 400)" opacity="0.54"></line><line x1="511.5" y1="400" x2="288.5" y2="400" transform="rotate(196, 400, 400)" opacity="0.41"></line><line x1="690" y1="400" x2="110" y2="400" transform="rotate(200, 400, 400)" opacity="0.50"></line><line x1="190" y1="400" x2="610" y2="400" transform="rotate(204, 400, 400)" opacity="0.31"></line><line x1="168.5" y1="400" x2="631.5" y2="400" transform="rotate(208, 400, 400)" opacity="0.64"></line><line x1="274.5" y1="400" x2="525.5" y2="400" transform="rotate(212, 400, 400)" opacity="0.40"></line><line x1="132.5" y1="400" x2="667.5" y2="400" transform="rotate(216, 400, 400)" opacity="0.43"></line><line x1="233.5" y1="400" x2="566.5" y2="400" transform="rotate(220, 400, 400)" opacity="0.95"></line><line x1="142" y1="400" x2="658" y2="400" transform="rotate(224, 400, 400)" opacity="0.95"></line><line x1="497" y1="400" x2="303" y2="400" transform="rotate(228, 400, 400)" opacity="0.72"></line><line x1="381.5" y1="400" x2="418.5" y2="400" transform="rotate(232, 400, 400)" opacity="0.65"></line><line x1="714" y1="400" x2="86" y2="400" transform="rotate(236, 400, 400)" opacity="0.16"></line><line x1="203" y1="400" x2="597" y2="400" transform="rotate(240, 400, 400)" opacity="0.41"></line><line x1="367.5" y1="400" x2="432.5" y2="400" transform="rotate(244, 400, 400)" opacity="0.14"></line><line x1="678" y1="400" x2="122" y2="400" transform="rotate(248, 400, 400)" opacity="0.28"></line><line x1="599.5" y1="400" x2="200.5" y2="400" transform="rotate(252, 400, 400)" opacity="0.12"></line><line x1="144.5" y1="400" x2="655.5" y2="400" transform="rotate(256, 400, 400)" opacity="0.58"></line><line x1="531.5" y1="400" x2="268.5" y2="400" transform="rotate(260, 400, 400)" opacity="0.74"></line><line x1="735" y1="400" x2="65" y2="400" transform="rotate(264, 400, 400)" opacity="0.62"></line><line x1="449" y1="400" x2="351" y2="400" transform="rotate(268, 400, 400)" opacity="0.46"></line><line x1="463" y1="400" x2="337" y2="400" transform="rotate(272, 400, 400)" opacity="0.39"></line><line x1="395.5" y1="400" x2="404.5" y2="400" transform="rotate(276, 400, 400)" opacity="0.90"></line><line x1="624.5" y1="400" x2="175.5" y2="400" transform="rotate(280, 400, 400)" opacity="0.80"></line><line x1="77" y1="400" x2="723" y2="400" transform="rotate(284, 400, 400)" opacity="0.43"></line><line x1="395.5" y1="400" x2="404.5" y2="400" transform="rotate(288, 400, 400)" opacity="0.16"></line><line x1="118" y1="400" x2="682" y2="400" transform="rotate(292, 400, 400)" opacity="0.96"></line><line x1="240.5" y1="400" x2="559.5" y2="400" transform="rotate(296, 400, 400)" opacity="0.68"></line><line x1="463.5" y1="400" x2="336.5" y2="400" transform="rotate(300, 400, 400)" opacity="0.57"></line><line x1="213.5" y1="400" x2="586.5" y2="400" transform="rotate(304, 400, 400)" opacity="0.94"></line><line x1="442.5" y1="400" x2="357.5" y2="400" transform="rotate(308, 400, 400)" opacity="0.38"></line><line x1="537" y1="400" x2="263" y2="400" transform="rotate(312, 400, 400)" opacity="0.69"></line><line x1="76.5" y1="400" x2="723.5" y2="400" transform="rotate(316, 400, 400)" opacity="0.71"></line><line x1="627" y1="400" x2="173" y2="400" transform="rotate(320, 400, 400)" opacity="0.56"></line><line x1="650" y1="400" x2="150" y2="400" transform="rotate(324, 400, 400)" opacity="0.33"></line><line x1="608.5" y1="400" x2="191.5" y2="400" transform="rotate(328, 400, 400)" opacity="0.73"></line><line x1="24" y1="400" x2="776" y2="400" transform="rotate(332, 400, 400)" opacity="0.90"></line><line x1="612.5" y1="400" x2="187.5" y2="400" transform="rotate(336, 400, 400)" opacity="0.30"></line><line x1="367.5" y1="400" x2="432.5" y2="400" transform="rotate(340, 400, 400)" opacity="0.43"></line><line x1="657" y1="400" x2="143" y2="400" transform="rotate(344, 400, 400)" opacity="0.13"></line><line x1="48" y1="400" x2="752" y2="400" transform="rotate(348, 400, 400)" opacity="0.85"></line></g></svg>