<svg xmlns="http://www.w3.org/2000/svg" version="1.1" xmlns:xlink="http://www.w3.org/1999/xlink" xmlns:svgjs="http://svgjs.dev/svgjs" viewBox="0 0 800 800" opacity="1"><defs><linearGradient x1="50%" y1="0%" x2="50%" y2="100%" id="vvvortex-grad"><stop stop-color="hsl(1.4, 100%, 67%)" stop-opacity="1" offset="0%"></stop><stop stop-color="hsl(167, 52%, 78%)" stop-opacity="1" offset="100%"></stop></linearGradient></defs><g stroke="url(#vvvortex-grad)" fill="none" stroke-linecap="round"><circle r="356.5" cx="400" cy="400" stroke-width="15" stroke-dasharray="48 24" stroke-dashoffset="25" transform="rotate(326, 400, 400)" opacity="1.00"></circle><circle r="341" cx="400" cy="400" stroke-width="14" stroke-dasharray="39 15" stroke-dashoffset="25" transform="rotate(294, 400, 400)" opacity="0.96"></circle><circle r="325.5" cx="400" cy="400" stroke-width="14" stroke-dasharray="43 27" stroke-dashoffset="25" transform="rotate(105, 400, 400)" opacity="0.91"></circle><circle r="310" cx="400" cy="400" stroke-width="14" stroke-dasharray="37 25" stroke-dashoffset="25" transform="rotate(90, 400, 400)" opacity="0.87"></circle><circle r="294.5" cx="400" cy="400" stroke-width="13" stroke-dasharray="46 55" stroke-dashoffset="25" transform="rotate(85, 400, 400)" opacity="0.83"></circle><circle r="279" cx="400" cy="400" stroke-width="13" stroke-dasharray="38 20" stroke-dashoffset="25" transform="rotate(141, 400, 400)" opacity="0.78"></circle><circle r="263.5" cx="400" cy="400" stroke-width="13" stroke-dasharray="20 16" stroke-dashoffset="25" transform="rotate(315, 400, 400)" opacity="0.74"></circle><circle r="248" cx="400" cy="400" stroke-width="13" stroke-dasharray="39 18" stroke-dashoffset="25" transform="rotate(353, 400, 400)" opacity="0.70"></circle><circle r="232.5" cx="400" cy="400" stroke-width="12" stroke-dasharray="16 19" stroke-dashoffset="25" transform="rotate(293, 400, 400)" opacity="0.65"></circle><circle r="217" cx="400" cy="400" stroke-width="12" stroke-dasharray="24 48" stroke-dashoffset="25" transform="rotate(272, 400, 400)" opacity="0.61"></circle><circle r="201.5" cx="400" cy="400" stroke-width="12" stroke-dasharray="37 27" stroke-dashoffset="25" transform="rotate(353, 400, 400)" opacity="0.57"></circle><circle r="186" cx="400" cy="400" stroke-width="12" stroke-dasharray="38 24" stroke-dashoffset="25" transform="rotate(1, 400, 400)" opacity="0.53"></circle><circle r="170.5" cx="400" cy="400" stroke-width="11" stroke-dasharray="53 32" stroke-dashoffset="25" transform="rotate(266, 400, 400)" opacity="0.48"></circle><circle r="155" cx="400" cy="400" stroke-width="11" stroke-dasharray="30 15" stroke-dashoffset="25" transform="rotate(260, 400, 400)" opacity="0.44"></circle><circle r="139.5" cx="400" cy="400" stroke-width="11" stroke-dasharray="29 39" stroke-dashoffset="25" transform="rotate(137, 400, 400)" opacity="0.40"></circle><circle r="124" cx="400" cy="400" stroke-width="10" stroke-dasharray="44 36" stroke-dashoffset="25" transform="rotate(227, 400, 400)" opacity="0.35"></circle><circle r="108.5" cx="400" cy="400" stroke-width="10" stroke-dasharray="29 27" stroke-dashoffset="25" transform="rotate(141, 400, 400)" opacity="0.31"></circle><circle r="93" cx="400" cy="400" stroke-width="10" stroke-dasharray="51 52" stroke-dashoffset="25" transform="rotate(217, 400, 400)" opacity="0.27"></circle><circle r="77.5" cx="400" cy="400" stroke-width="10" stroke-dasharray="21 32" stroke-dashoffset="25" transform="rotate(202, 400, 400)" opacity="0.22"></circle><circle r="62" cx="400" cy="400" stroke-width="9" stroke-dasharray="53 46" stroke-dashoffset="25" transform="rotate(22, 400, 400)" opacity="0.18"></circle><circle r="46.5" cx="400" cy="400" stroke-width="9" stroke-dasharray="52 23" stroke-dashoffset="25" transform="rotate(200, 400, 400)" opacity="0.14"></circle><circle r="31" cx="400" cy="400" stroke-width="9" stroke-dasharray="48 29" stroke-dashoffset="25" transform="rotate(42, 400, 400)" opacity="0.09"></circle><circle r="15.5" cx="400" cy="400" stroke-width="9" stroke-dasharray="25 23" stroke-dashoffset="25" transform="rotate(200, 400, 400)" opacity="0.05"></circle></g></svg>